<svg width="820" height="563" viewBox="0 0 820 563" fill="none" xmlns="http://www.w3.org/2000/svg">
<path d="M286.557 463.325V475H284.642V467.004L281.08 475H279.753L276.175 467.004V475H274.26V463.325H276.326L280.425 472.48L284.507 463.325H286.557ZM299.472 472.615H294.584L293.744 475H291.745L295.928 463.308H298.145L302.328 475H300.312L299.472 472.615ZM298.935 471.052L297.036 465.626L295.121 471.052H298.935ZM311.353 475.118C310.57 475.118 309.864 474.983 309.237 474.714C308.61 474.434 308.117 474.042 307.759 473.539C307.4 473.035 307.221 472.447 307.221 471.775H309.27C309.315 472.279 309.511 472.693 309.858 473.018C310.217 473.343 310.715 473.505 311.353 473.505C312.014 473.505 312.529 473.348 312.899 473.035C313.269 472.71 313.453 472.295 313.453 471.791C313.453 471.399 313.336 471.08 313.101 470.834C312.877 470.588 312.591 470.397 312.244 470.263C311.908 470.128 311.437 469.983 310.833 469.826C310.071 469.624 309.45 469.423 308.968 469.221C308.498 469.008 308.094 468.684 307.759 468.247C307.423 467.81 307.255 467.228 307.255 466.5C307.255 465.828 307.423 465.24 307.759 464.736C308.094 464.232 308.565 463.846 309.17 463.577C309.774 463.308 310.474 463.174 311.269 463.174C312.401 463.174 313.325 463.459 314.041 464.03C314.769 464.59 315.172 465.363 315.251 466.349H313.134C313.101 465.923 312.899 465.559 312.529 465.257C312.16 464.954 311.673 464.803 311.068 464.803C310.519 464.803 310.071 464.943 309.724 465.223C309.377 465.503 309.203 465.906 309.203 466.433C309.203 466.791 309.31 467.088 309.522 467.323C309.746 467.547 310.026 467.726 310.362 467.86C310.698 467.995 311.157 468.14 311.74 468.297C312.513 468.51 313.14 468.723 313.621 468.936C314.114 469.148 314.528 469.479 314.864 469.927C315.212 470.364 315.385 470.951 315.385 471.691C315.385 472.284 315.223 472.844 314.898 473.371C314.584 473.897 314.12 474.322 313.504 474.647C312.899 474.961 312.182 475.118 311.353 475.118ZM328.547 463.325V464.887H325.44V475H323.525V464.887H320.4V463.325H328.547ZM335.762 464.87V468.297H339.793V469.86H335.762V473.438H340.297V475H333.847V463.308H340.297V464.87H335.762ZM352.08 475L349.392 470.33H347.931V475H346.016V463.325H350.048C350.944 463.325 351.7 463.482 352.315 463.795C352.943 464.109 353.407 464.529 353.71 465.055C354.023 465.581 354.18 466.169 354.18 466.819C354.18 467.581 353.956 468.275 353.508 468.902C353.071 469.518 352.394 469.938 351.476 470.162L354.365 475H352.08ZM347.931 468.801H350.048C350.764 468.801 351.302 468.622 351.66 468.264C352.03 467.905 352.215 467.424 352.215 466.819C352.215 466.214 352.036 465.744 351.677 465.408C351.319 465.061 350.776 464.887 350.048 464.887H347.931V468.801ZM361.905 463.325V475H359.99V463.325H361.905ZM377.371 475H375.456L369.694 466.281V475H367.779V463.308H369.694L375.456 472.01V463.308H377.371V475ZM391.696 466.685C391.393 466.102 390.973 465.665 390.436 465.374C389.898 465.072 389.277 464.921 388.571 464.921C387.798 464.921 387.109 465.094 386.505 465.441C385.9 465.789 385.424 466.281 385.077 466.92C384.741 467.558 384.573 468.297 384.573 469.137C384.573 469.977 384.741 470.722 385.077 471.371C385.424 472.01 385.9 472.503 386.505 472.85C387.109 473.197 387.798 473.371 388.571 473.371C389.612 473.371 390.458 473.079 391.108 472.497C391.757 471.915 392.155 471.125 392.3 470.128H387.916V468.6H394.35V470.095C394.227 471.002 393.902 471.836 393.375 472.598C392.86 473.359 392.183 473.97 391.343 474.429C390.514 474.877 389.59 475.101 388.571 475.101C387.473 475.101 386.471 474.849 385.564 474.345C384.657 473.83 383.934 473.119 383.397 472.211C382.871 471.304 382.607 470.28 382.607 469.137C382.607 467.995 382.871 466.97 383.397 466.063C383.934 465.156 384.657 464.45 385.564 463.946C386.482 463.431 387.485 463.174 388.571 463.174C389.814 463.174 390.917 463.482 391.88 464.098C392.855 464.702 393.56 465.565 393.997 466.685H391.696ZM414.865 463.325V464.887H411.757V475H409.842V464.887H406.717V463.325H414.865ZM422.079 464.87V468.297H426.111V469.86H422.079V473.438H426.615V475H420.164V463.308H426.615V464.87H422.079ZM431.695 469.137C431.695 467.995 431.958 466.97 432.484 466.063C433.022 465.156 433.744 464.45 434.651 463.946C435.57 463.431 436.572 463.174 437.658 463.174C438.901 463.174 440.005 463.482 440.968 464.098C441.942 464.702 442.648 465.565 443.084 466.685H440.783C440.481 466.069 440.061 465.609 439.523 465.307C438.985 465.005 438.364 464.853 437.658 464.853C436.886 464.853 436.197 465.027 435.592 465.374C434.987 465.721 434.511 466.22 434.164 466.869C433.828 467.519 433.66 468.275 433.66 469.137C433.66 470 433.828 470.755 434.164 471.405C434.511 472.055 434.987 472.559 435.592 472.917C436.197 473.264 436.886 473.438 437.658 473.438C438.364 473.438 438.985 473.287 439.523 472.984C440.061 472.682 440.481 472.223 440.783 471.607H443.084C442.648 472.727 441.942 473.589 440.968 474.194C440.005 474.798 438.901 475.101 437.658 475.101C436.561 475.101 435.559 474.849 434.651 474.345C433.744 473.83 433.022 473.119 432.484 472.211C431.958 471.304 431.695 470.28 431.695 469.137ZM458.009 463.325V475H456.094V469.893H450.601V475H448.686V463.325H450.601V468.331H456.094V463.325H458.009ZM473.482 475H471.567L465.805 466.281V475H463.89V463.308H465.805L471.567 472.01V463.308H473.482V475ZM484.682 475.118C483.596 475.118 482.593 474.866 481.675 474.362C480.768 473.846 480.046 473.135 479.508 472.228C478.982 471.31 478.718 470.28 478.718 469.137C478.718 467.995 478.982 466.97 479.508 466.063C480.046 465.156 480.768 464.45 481.675 463.946C482.593 463.431 483.596 463.174 484.682 463.174C485.78 463.174 486.782 463.431 487.689 463.946C488.607 464.45 489.33 465.156 489.856 466.063C490.382 466.97 490.646 467.995 490.646 469.137C490.646 470.28 490.382 471.31 489.856 472.228C489.33 473.135 488.607 473.846 487.689 474.362C486.782 474.866 485.78 475.118 484.682 475.118ZM484.682 473.455C485.455 473.455 486.144 473.281 486.748 472.934C487.353 472.575 487.823 472.071 488.159 471.422C488.507 470.761 488.68 470 488.68 469.137C488.68 468.275 488.507 467.519 488.159 466.869C487.823 466.22 487.353 465.721 486.748 465.374C486.144 465.027 485.455 464.853 484.682 464.853C483.909 464.853 483.221 465.027 482.616 465.374C482.011 465.721 481.535 466.22 481.188 466.869C480.852 467.519 480.684 468.275 480.684 469.137C480.684 470 480.852 470.761 481.188 471.422C481.535 472.071 482.011 472.575 482.616 472.934C483.221 473.281 483.909 473.455 484.682 473.455ZM497.805 473.455H501.753V475H495.89V463.325H497.805V473.455ZM512.039 475.118C510.953 475.118 509.951 474.866 509.032 474.362C508.125 473.846 507.403 473.135 506.865 472.228C506.339 471.31 506.076 470.28 506.076 469.137C506.076 467.995 506.339 466.97 506.865 466.063C507.403 465.156 508.125 464.45 509.032 463.946C509.951 463.431 510.953 463.174 512.039 463.174C513.137 463.174 514.139 463.431 515.046 463.946C515.965 464.45 516.687 465.156 517.213 466.063C517.74 466.97 518.003 467.995 518.003 469.137C518.003 470.28 517.74 471.31 517.213 472.228C516.687 473.135 515.965 473.846 515.046 474.362C514.139 474.866 513.137 475.118 512.039 475.118ZM512.039 473.455C512.812 473.455 513.501 473.281 514.105 472.934C514.71 472.575 515.181 472.071 515.517 471.422C515.864 470.761 516.037 470 516.037 469.137C516.037 468.275 515.864 467.519 515.517 466.869C515.181 466.22 514.71 465.721 514.105 465.374C513.501 465.027 512.812 464.853 512.039 464.853C511.266 464.853 510.578 465.027 509.973 465.374C509.368 465.721 508.892 466.22 508.545 466.869C508.209 467.519 508.041 468.275 508.041 469.137C508.041 470 508.209 470.761 508.545 471.422C508.892 472.071 509.368 472.575 509.973 472.934C510.578 473.281 511.266 473.455 512.039 473.455ZM531.697 466.685C531.394 466.102 530.975 465.665 530.437 465.374C529.899 465.072 529.278 464.921 528.572 464.921C527.8 464.921 527.111 465.094 526.506 465.441C525.901 465.789 525.425 466.281 525.078 466.92C524.742 467.558 524.574 468.297 524.574 469.137C524.574 469.977 524.742 470.722 525.078 471.371C525.425 472.01 525.901 472.503 526.506 472.85C527.111 473.197 527.8 473.371 528.572 473.371C529.614 473.371 530.459 473.079 531.109 472.497C531.758 471.915 532.156 471.125 532.302 470.128H527.917V468.6H534.351V470.095C534.228 471.002 533.903 471.836 533.377 472.598C532.862 473.359 532.184 473.97 531.344 474.429C530.515 474.877 529.591 475.101 528.572 475.101C527.475 475.101 526.472 474.849 525.565 474.345C524.658 473.83 523.936 473.119 523.398 472.211C522.872 471.304 522.609 470.28 522.609 469.137C522.609 467.995 522.872 466.97 523.398 466.063C523.936 465.156 524.658 464.45 525.565 463.946C526.484 463.431 527.486 463.174 528.572 463.174C529.815 463.174 530.919 463.482 531.882 464.098C532.856 464.702 533.562 465.565 533.998 466.685H531.697ZM548.251 463.325L544.387 470.767V475H542.472V470.767L538.592 463.325H540.725L543.43 469.053L546.134 463.325H548.251ZM555.23 472.699L553.198 477.335H551.955L553.147 472.699H555.23ZM569.902 464.87V468.297H573.934V469.86H569.902V473.438H574.438V475H567.987V463.308H574.438V464.87H569.902ZM582.071 473.455H586.019V475H580.156V463.325H582.071V473.455ZM592.896 464.87V468.297H596.927V469.86H592.896V473.438H597.431V475H590.981V463.308H597.431V464.87H592.896ZM613.212 463.325L608.828 475H606.61L602.209 463.325H604.259L607.719 473.035L611.196 463.325H613.212ZM625.212 472.615H620.324L619.484 475H617.485L621.668 463.308H623.885L628.068 475H626.052L625.212 472.615ZM624.675 471.052L622.777 465.626L620.861 471.052H624.675ZM640.789 463.325V464.887H637.682V475H635.766V464.887H632.642V463.325H640.789ZM648.004 463.325V475H646.089V463.325H648.004ZM663.47 475H661.555L655.793 466.281V475H653.878V463.308H655.793L661.555 472.01V463.308H663.47V475ZM677.794 466.685C677.492 466.102 677.072 465.665 676.534 465.374C675.997 465.072 675.375 464.921 674.67 464.921C673.897 464.921 673.208 465.094 672.603 465.441C671.999 465.789 671.523 466.281 671.176 466.92C670.84 467.558 670.672 468.297 670.672 469.137C670.672 469.977 670.84 470.722 671.176 471.371C671.523 472.01 671.999 472.503 672.603 472.85C673.208 473.197 673.897 473.371 674.67 473.371C675.711 473.371 676.557 473.079 677.206 472.497C677.856 471.915 678.253 471.125 678.399 470.128H674.015V468.6H680.449V470.095C680.325 471.002 680.001 471.836 679.474 472.598C678.959 473.359 678.281 473.97 677.442 474.429C676.613 474.877 675.689 475.101 674.67 475.101C673.572 475.101 672.57 474.849 671.663 474.345C670.756 473.83 670.033 473.119 669.496 472.211C668.969 471.304 668.706 470.28 668.706 469.137C668.706 467.995 668.969 466.97 669.496 466.063C670.033 465.156 670.756 464.45 671.663 463.946C672.581 463.431 673.583 463.174 674.67 463.174C675.913 463.174 677.016 463.482 677.979 464.098C678.953 464.702 679.659 465.565 680.096 466.685H677.794ZM699.67 469.003C700.297 469.115 700.829 469.445 701.266 469.994C701.703 470.543 701.921 471.164 701.921 471.859C701.921 472.452 701.764 472.99 701.451 473.471C701.148 473.942 700.706 474.317 700.123 474.597C699.541 474.866 698.864 475 698.091 475H693.421V463.325H697.872C698.668 463.325 699.351 463.459 699.922 463.728C700.493 463.997 700.924 464.361 701.215 464.82C701.507 465.268 701.652 465.772 701.652 466.332C701.652 467.004 701.473 467.564 701.115 468.012C700.756 468.46 700.275 468.79 699.67 469.003ZM695.336 468.23H697.704C698.332 468.23 698.819 468.09 699.166 467.81C699.524 467.519 699.703 467.105 699.703 466.567C699.703 466.041 699.524 465.632 699.166 465.341C698.819 465.038 698.332 464.887 697.704 464.887H695.336V468.23ZM697.923 473.438C698.572 473.438 699.082 473.281 699.451 472.967C699.821 472.654 700.006 472.217 700.006 471.657C700.006 471.086 699.81 470.632 699.418 470.296C699.026 469.96 698.505 469.792 697.856 469.792H695.336V473.438H697.923ZM709.26 463.325V470.767C709.26 471.651 709.49 472.318 709.949 472.766C710.419 473.214 711.069 473.438 711.897 473.438C712.737 473.438 713.387 473.214 713.846 472.766C714.316 472.318 714.552 471.651 714.552 470.767V463.325H716.467V470.733C716.467 471.685 716.26 472.491 715.845 473.152C715.431 473.813 714.876 474.306 714.182 474.63C713.488 474.955 712.721 475.118 711.881 475.118C711.041 475.118 710.274 474.955 709.579 474.63C708.896 474.306 708.353 473.813 707.95 473.152C707.547 472.491 707.345 471.685 707.345 470.733V463.325H709.26ZM726.167 475.118C725.383 475.118 724.677 474.983 724.05 474.714C723.423 474.434 722.93 474.042 722.572 473.539C722.214 473.035 722.034 472.447 722.034 471.775H724.084C724.129 472.279 724.325 472.693 724.672 473.018C725.03 473.343 725.529 473.505 726.167 473.505C726.828 473.505 727.343 473.348 727.712 473.035C728.082 472.71 728.267 472.295 728.267 471.791C728.267 471.399 728.149 471.08 727.914 470.834C727.69 470.588 727.404 470.397 727.057 470.263C726.721 470.128 726.251 469.983 725.646 469.826C724.885 469.624 724.263 469.423 723.781 469.221C723.311 469.008 722.908 468.684 722.572 468.247C722.236 467.81 722.068 467.228 722.068 466.5C722.068 465.828 722.236 465.24 722.572 464.736C722.908 464.232 723.378 463.846 723.983 463.577C724.588 463.308 725.288 463.174 726.083 463.174C727.214 463.174 728.138 463.459 728.855 464.03C729.583 464.59 729.986 465.363 730.064 466.349H727.948C727.914 465.923 727.712 465.559 727.343 465.257C726.973 464.954 726.486 464.803 725.881 464.803C725.333 464.803 724.885 464.943 724.537 465.223C724.19 465.503 724.017 465.906 724.017 466.433C724.017 466.791 724.123 467.088 724.336 467.323C724.56 467.547 724.84 467.726 725.176 467.86C725.512 467.995 725.971 468.14 726.553 468.297C727.326 468.51 727.953 468.723 728.435 468.936C728.927 469.148 729.342 469.479 729.678 469.927C730.025 470.364 730.199 470.951 730.199 471.691C730.199 472.284 730.036 472.844 729.711 473.371C729.398 473.897 728.933 474.322 728.317 474.647C727.712 474.961 726.996 475.118 726.167 475.118ZM737.733 463.325V475H735.818V463.325H737.733ZM753.199 475H751.284L745.522 466.281V475H743.607V463.308H745.522L751.284 472.01V463.308H753.199V475ZM760.989 464.87V468.297H765.021V469.86H760.989V473.438H765.525V475H759.074V463.308H765.525V464.87H760.989ZM775.09 475.118C774.306 475.118 773.601 474.983 772.974 474.714C772.346 474.434 771.854 474.042 771.495 473.539C771.137 473.035 770.958 472.447 770.958 471.775H773.007C773.052 472.279 773.248 472.693 773.595 473.018C773.954 473.343 774.452 473.505 775.09 473.505C775.751 473.505 776.266 473.348 776.636 473.035C777.005 472.71 777.19 472.295 777.19 471.791C777.19 471.399 777.073 471.08 776.837 470.834C776.613 470.588 776.328 470.397 775.981 470.263C775.645 470.128 775.174 469.983 774.569 469.826C773.808 469.624 773.186 469.423 772.705 469.221C772.234 469.008 771.831 468.684 771.495 468.247C771.159 467.81 770.991 467.228 770.991 466.5C770.991 465.828 771.159 465.24 771.495 464.736C771.831 464.232 772.302 463.846 772.906 463.577C773.511 463.308 774.211 463.174 775.006 463.174C776.137 463.174 777.061 463.459 777.778 464.03C778.506 464.59 778.909 465.363 778.988 466.349H776.871C776.837 465.923 776.636 465.559 776.266 465.257C775.897 464.954 775.409 464.803 774.805 464.803C774.256 464.803 773.808 464.943 773.461 465.223C773.114 465.503 772.94 465.906 772.94 466.433C772.94 466.791 773.046 467.088 773.259 467.323C773.483 467.547 773.763 467.726 774.099 467.86C774.435 467.995 774.894 468.14 775.477 468.297C776.249 468.51 776.877 468.723 777.358 468.936C777.851 469.148 778.265 469.479 778.601 469.927C778.948 470.364 779.122 470.951 779.122 471.691C779.122 472.284 778.96 472.844 778.635 473.371C778.321 473.897 777.856 474.322 777.241 474.647C776.636 474.961 775.919 475.118 775.09 475.118ZM788.588 475.118C787.804 475.118 787.099 474.983 786.472 474.714C785.845 474.434 785.352 474.042 784.993 473.539C784.635 473.035 784.456 472.447 784.456 471.775H786.505C786.55 472.279 786.746 472.693 787.093 473.018C787.452 473.343 787.95 473.505 788.588 473.505C789.249 473.505 789.764 473.348 790.134 473.035C790.503 472.71 790.688 472.295 790.688 471.791C790.688 471.399 790.571 471.08 790.335 470.834C790.111 470.588 789.826 470.397 789.479 470.263C789.143 470.128 788.672 469.983 788.068 469.826C787.306 469.624 786.685 469.423 786.203 469.221C785.733 469.008 785.329 468.684 784.993 468.247C784.657 467.81 784.489 467.228 784.489 466.5C784.489 465.828 784.657 465.24 784.993 464.736C785.329 464.232 785.8 463.846 786.405 463.577C787.009 463.308 787.709 463.174 788.504 463.174C789.636 463.174 790.559 463.459 791.276 464.03C792.004 464.59 792.407 465.363 792.486 466.349H790.369C790.335 465.923 790.134 465.559 789.764 465.257C789.395 464.954 788.908 464.803 788.303 464.803C787.754 464.803 787.306 464.943 786.959 465.223C786.612 465.503 786.438 465.906 786.438 466.433C786.438 466.791 786.545 467.088 786.757 467.323C786.981 467.547 787.261 467.726 787.597 467.86C787.933 467.995 788.392 468.14 788.975 468.297C789.748 468.51 790.375 468.723 790.856 468.936C791.349 469.148 791.763 469.479 792.099 469.927C792.447 470.364 792.62 470.951 792.62 471.691C792.62 472.284 792.458 472.844 792.133 473.371C791.819 473.897 791.355 474.322 790.739 474.647C790.134 474.961 789.417 475.118 788.588 475.118ZM800.155 464.87V468.297H804.186V469.86H800.155V473.438H804.69V475H798.24V463.308H804.69V464.87H800.155ZM814.256 475.118C813.472 475.118 812.766 474.983 812.139 474.714C811.512 474.434 811.019 474.042 810.661 473.539C810.303 473.035 810.123 472.447 810.123 471.775H812.173C812.218 472.279 812.414 472.693 812.761 473.018C813.119 473.343 813.617 473.505 814.256 473.505C814.917 473.505 815.432 473.348 815.801 473.035C816.171 472.71 816.356 472.295 816.356 471.791C816.356 471.399 816.238 471.08 816.003 470.834C815.779 470.588 815.493 470.397 815.146 470.263C814.81 470.128 814.34 469.983 813.735 469.826C812.974 469.624 812.352 469.423 811.87 469.221C811.4 469.008 810.997 468.684 810.661 468.247C810.325 467.81 810.157 467.228 810.157 466.5C810.157 465.828 810.325 465.24 810.661 464.736C810.997 464.232 811.467 463.846 812.072 463.577C812.677 463.308 813.377 463.174 814.172 463.174C815.303 463.174 816.227 463.459 816.944 464.03C817.672 464.59 818.075 465.363 818.153 466.349H816.037C816.003 465.923 815.801 465.559 815.432 465.257C815.062 464.954 814.575 464.803 813.97 464.803C813.421 464.803 812.974 464.943 812.626 465.223C812.279 465.503 812.106 465.906 812.106 466.433C812.106 466.791 812.212 467.088 812.425 467.323C812.649 467.547 812.929 467.726 813.265 467.86C813.601 467.995 814.06 468.14 814.642 468.297C815.415 468.51 816.042 468.723 816.524 468.936C817.016 469.148 817.431 469.479 817.767 469.927C818.114 470.364 818.288 470.951 818.288 471.691C818.288 472.284 818.125 472.844 817.8 473.371C817.487 473.897 817.022 474.322 816.406 474.647C815.801 474.961 815.085 475.118 814.256 475.118Z" fill="white"/>
<path d="M304.023 428H293.897V387.39H278.637V377.229H319.247V387.39H304.023V428ZM365.958 428H331.155V377.229H365.958V387.39H341.316V397.551H357.992V407.713H341.316V417.839H365.958V428ZM418.865 422.795C416.505 424.825 413.861 426.383 410.934 427.469C408.007 428.555 404.974 429.098 401.835 429.098C399.427 429.098 397.102 428.779 394.86 428.142C392.641 427.528 390.552 426.655 388.593 425.522C386.658 424.365 384.888 422.984 383.283 421.379C381.678 419.774 380.297 418.004 379.14 416.068C378.007 414.109 377.122 412.02 376.485 409.802C375.871 407.559 375.564 405.234 375.564 402.827C375.564 400.419 375.871 398.094 376.485 395.852C377.122 393.61 378.007 391.521 379.14 389.585C380.297 387.626 381.678 385.844 383.283 384.239C384.888 382.634 386.658 381.265 388.593 380.132C390.552 378.975 392.641 378.09 394.86 377.477C397.102 376.839 399.427 376.521 401.835 376.521C404.974 376.521 408.007 377.064 410.934 378.149C413.861 379.212 416.505 380.769 418.865 382.823L413.483 391.674C411.996 390.069 410.238 388.842 408.208 387.992C406.178 387.119 404.054 386.682 401.835 386.682C399.593 386.682 397.492 387.107 395.533 387.957C393.574 388.806 391.862 389.963 390.399 391.426C388.936 392.866 387.779 394.577 386.929 396.56C386.08 398.519 385.655 400.608 385.655 402.827C385.655 405.046 386.08 407.134 386.929 409.094C387.779 411.029 388.936 412.729 390.399 414.192C391.862 415.655 393.574 416.812 395.533 417.662C397.492 418.511 399.593 418.936 401.835 418.936C404.054 418.936 406.178 418.511 408.208 417.662C410.238 416.788 411.996 415.549 413.483 413.944L418.865 422.795ZM441.465 428H431.304V377.229H441.465V397.551H461.752V377.229H471.913V428H461.752V407.713H441.465V428ZM527.334 428H515.013L505.241 411.607L495.434 428H483.184L498.762 402.614L483.184 377.229H495.434L505.241 393.621L515.013 377.229H527.334L511.756 402.614L527.334 428ZM548.766 387.39V407.713H558.927C560.319 407.713 561.629 407.453 562.857 406.934C564.084 406.391 565.158 405.659 566.079 404.739C566.999 403.818 567.719 402.744 568.238 401.517C568.781 400.266 569.053 398.944 569.053 397.551C569.053 396.159 568.781 394.849 568.238 393.621C567.719 392.37 566.999 391.285 566.079 390.364C565.158 389.444 564.084 388.724 562.857 388.204C561.629 387.662 560.319 387.39 558.927 387.39H548.766ZM548.766 428H538.604V377.229H558.927C560.792 377.229 562.585 377.477 564.308 377.972C566.031 378.444 567.637 379.129 569.124 380.026C570.634 380.899 572.003 381.961 573.231 383.212C574.482 384.44 575.544 385.809 576.417 387.319C577.314 388.83 577.998 390.447 578.471 392.17C578.966 393.893 579.214 395.687 579.214 397.551C579.214 400.337 578.683 402.968 577.621 405.447C576.559 407.902 575.107 410.05 573.266 411.891C571.425 413.732 569.265 415.183 566.787 416.245C564.332 417.308 561.712 417.839 558.927 417.839H548.766V428ZM626.527 428H591.723V377.229H626.527V387.39H601.885V397.551H618.561V407.713H601.885V417.839H626.527V428ZM650.331 387.39V407.713H660.492C661.884 407.713 663.194 407.453 664.422 406.934C665.649 406.391 666.723 405.659 667.644 404.739C668.564 403.818 669.284 402.744 669.803 401.517C670.346 400.266 670.618 398.944 670.618 397.551C670.618 396.159 670.346 394.849 669.803 393.621C669.284 392.37 668.564 391.285 667.644 390.364C666.723 389.444 665.649 388.724 664.422 388.204C663.194 387.662 661.884 387.39 660.492 387.39H650.331ZM650.331 428H640.169V377.229H660.492C662.357 377.229 664.15 377.477 665.873 377.972C667.597 378.444 669.202 379.129 670.689 380.026C672.199 380.899 673.568 381.961 674.796 383.212C676.047 384.44 677.109 385.809 677.982 387.319C678.879 388.83 679.564 390.447 680.036 392.17C680.531 393.893 680.779 395.687 680.779 397.551C680.779 399.298 680.555 400.998 680.106 402.65C679.682 404.302 679.056 405.872 678.23 407.359C677.427 408.846 676.436 410.215 675.256 411.466C674.076 412.717 672.754 413.802 671.29 414.723L676.92 428H666.121L661.696 417.768L650.331 417.839V428ZM714.39 428H704.264V387.39H689.004V377.229H729.614V387.39H714.39V428Z" fill="white"/>
<path d="M555.302 211.544C585.522 89.1507 489.509 39.035 438.197 28.3319C510.915 63.2744 542.08 123.715 526.97 204.933C514.882 269.907 452.678 303.779 423.087 312.594C506.949 304.283 547.84 241.764 555.302 211.544Z" fill="white"/>
<path d="M490.138 176.6C499.582 49.1068 373.978 15.1104 326.758 23.6095C384.366 30.2207 460.925 76.4958 462.751 182.266C463.68 236.09 420.253 284.26 397.588 298.426C460.862 272.928 487.702 209.492 490.138 176.6Z" fill="white"/>
<path d="M400.794 132.451C343.226 18.3043 218.052 53.8545 181.955 85.4596C237.041 62.33 327.703 65.1632 378.7 152.992C406.424 200.739 390.832 267.057 378.7 290.873C419.804 236.428 415.646 161.9 400.794 132.451Z" fill="white"/>
<path d="M300.194 112.02C194.504 40.0951 102.26 131.873 86.011 177.016C122.977 130.08 203.645 88.6043 290.828 140.697C338.225 169.017 356.739 234.579 357.675 261.29C367.229 193.744 327.461 130.576 300.194 112.02Z" fill="white"/>
<path d="M215.632 151.846C90.2401 126.935 41.1898 247.459 43.8709 295.363C59.5593 237.714 119.435 167.437 220.042 181.323C274.736 188.873 315.569 242.567 326.867 266.79C309.27 200.88 247.982 158.272 215.632 151.846Z" fill="white"/>
<path d="M136.404 223.178C19.4005 274.694 48.3509 401.556 78.0235 439.258C57.8086 383.037 66.547 291.126 156.924 244.796C206.057 219.608 270.303 240.171 293.452 253.533C241.233 209.636 166.589 209.888 136.404 223.178Z" fill="white"/>
<path d="M119.524 324.114C46.9448 426.865 135.92 522.365 180.772 539.399C134.489 501.619 94.6414 418.336 148.248 332.075C177.39 285.18 241.482 269.621 268.206 269.152C188.877 259.708 138.553 297.175 119.524 324.114Z" fill="white"/>
<path d="M166.552 380.243C126.547 488.25 217.15 552.804 264.429 560.968C211.787 532.714 166.552 479.75 192.655 386.255C206.892 335.258 260.01 306.823 286.154 301.264C217.975 303.583 178.008 349.314 166.552 380.243Z" fill="white"/>
</svg>
