<?xml version="1.0" encoding="UTF-8"?>
<svg width="32" height="32" version="1.1" viewBox="0 0 32 32" xmlns="http://www.w3.org/2000/svg">
 <g transform="translate(4,2) scale(0.04)">
  <path d="M 300 250 C 450 100, 500 200, 550 250 C 500 300, 450 400, 300 250 Z" fill="#FFFFFF"/>
  <path d="M 250 250 C 400 100, 450 200, 500 250 C 450 300, 400 400, 250 250 Z" fill="#FFFFFF"/>
  <path d="M 200 250 C 350 100, 400 200, 450 250 C 400 300, 350 400, 200 250 Z" fill="#FFFFFF"/>
  <path d="M 150 250 C 300 100, 350 200, 400 250 C 350 300, 300 400, 150 250 Z" fill="#FFFFFF"/>
  <path d="M 100 250 C 250 100, 300 200, 350 250 C 300 300, 250 400, 100 250 Z" fill="#FFFFFF"/>
 </g>
</svg>